<svg width="637" height="581" viewBox="0 0 637 581" fill="none" xmlns="http://www.w3.org/2000/svg">
<circle opacity="0.8" cx="344.5" cy="318.5" r="262.5" fill="url(#paint0_linear_11310_54212)"/>
<path opacity="0.6" d="M217.878 17.8484C217.09 11.9367 212.038 7.366 205.935 7.366C203.532 7.366 201.316 8.06483 199.438 9.27361C196.697 3.77744 191.044 0 184.51 0C178.726 0 173.618 2.96529 170.633 7.46044C170.201 7.38489 169.769 7.34711 169.337 7.34711C164.887 7.34711 161.262 10.9735 161.262 15.4686C161.262 16.0541 161.319 16.6207 161.45 17.1873C156.681 17.9051 153 22.0602 153 27.0465C153 32.5237 157.45 37 162.896 37H214.104C219.55 37 224 32.5237 224 27.0465C224 22.9102 221.465 19.3594 217.878 17.8484Z" fill="url(#paint1_linear_11310_54212)"/>
<path opacity="0.6" d="M572.703 27.1514H525.904C525.316 26.1839 525 25.0481 525 23.8282C525 20.2526 527.903 17.35 531.478 17.35C532.635 17.35 533.708 17.6445 534.633 18.1703C535.727 16.1512 537.872 14.763 540.354 14.763C541.343 14.763 542.268 14.9733 543.109 15.373C545.107 11.587 549.125 9 553.752 9C560.419 9 565.825 14.4054 565.825 21.0729C565.825 21.136 565.825 21.1991 565.825 21.2832H566.119C569.506 21.2832 572.324 23.8702 572.703 27.1514Z" fill="url(#paint2_linear_11310_54212)"/>
<path opacity="0.6" d="M47.7026 399.151H0.904424C0.315503 398.184 0 397.048 0 395.828C0 392.253 2.90255 389.35 6.47813 389.35C7.63494 389.35 8.70762 389.645 9.63306 390.17C10.7268 388.151 12.8721 386.763 15.354 386.763C16.3425 386.763 17.268 386.973 18.1093 387.373C20.1074 383.587 24.1247 381 28.752 381C35.4194 381 40.8248 386.405 40.8248 393.073C40.8248 393.136 40.8248 393.199 40.8248 393.283H41.1193C44.5055 393.283 47.324 395.87 47.7026 399.151Z" fill="url(#paint3_linear_11310_54212)"/>
<path d="M174.053 529.011C233.673 529.011 282.005 521.099 282.005 511.338C282.005 501.578 233.673 493.666 174.053 493.666C114.433 493.666 66.1016 501.578 66.1016 511.338C66.1016 521.099 114.433 529.011 174.053 529.011Z" fill="#D7ECFF"/>
<path d="M510.593 103.435H460.8L425.627 506.403H475.42C482.408 506.268 489.106 503.578 494.25 498.841C499.394 494.104 502.628 487.646 503.344 480.687L534.067 129.136C534.424 125.86 534.079 122.546 533.056 119.415C532.034 116.283 530.356 113.405 528.135 110.973C525.913 108.541 523.2 106.611 520.175 105.311C517.151 104.012 513.884 103.372 510.593 103.435Z" fill="url(#paint4_linear_11310_54212)"/>
<path d="M500.437 103.434H331.912C324.924 103.565 318.224 106.251 313.077 110.986C307.931 115.72 304.692 122.176 303.973 129.135L273.25 480.686C272.896 483.959 273.242 487.27 274.263 490.4C275.285 493.529 276.96 496.405 279.177 498.837C281.394 501.269 284.103 503.201 287.123 504.505C290.142 505.81 293.405 506.457 296.693 506.403H465.203C472.182 506.253 478.867 503.557 484.001 498.822C489.134 494.086 492.364 487.637 493.081 480.686L523.804 129.135C524.16 125.869 523.818 122.564 522.801 119.44C521.785 116.316 520.116 113.444 517.907 111.014C515.698 108.584 512.998 106.651 509.986 105.345C506.974 104.038 503.719 103.387 500.437 103.434Z" fill="#407BFF"/>
<path d="M500.437 103.434H331.912C324.924 103.565 318.224 106.251 313.077 110.986C307.931 115.72 304.692 122.176 303.973 129.135L273.25 480.686C272.896 483.959 273.242 487.27 274.263 490.4C275.285 493.529 276.96 496.405 279.177 498.837C281.394 501.269 284.103 503.201 287.123 504.505C290.142 505.81 293.405 506.457 296.693 506.403H465.203C472.182 506.253 478.867 503.557 484.001 498.822C489.134 494.086 492.364 487.637 493.081 480.686L523.804 129.135C524.16 125.869 523.818 122.564 522.801 119.44C521.785 116.316 520.116 113.444 517.907 111.014C515.698 108.584 512.998 106.651 509.986 105.345C506.974 104.038 503.719 103.387 500.437 103.434Z" fill="url(#paint5_linear_11310_54212)"/>
<path d="M499.719 111.67H455.279C453.954 111.681 452.663 112.089 451.572 112.842C450.482 113.596 449.642 114.659 449.162 115.895C447.409 120.435 444.345 124.349 440.36 127.138C436.375 129.927 431.65 131.465 426.789 131.554H400.577C395.999 131.647 391.531 130.138 387.944 127.288C384.357 124.438 381.875 120.425 380.926 115.941C380.673 114.727 380.004 113.641 379.035 112.869C378.066 112.098 376.858 111.69 375.62 111.716H331.195C326.445 111.8 321.89 113.624 318.393 116.842C314.896 120.061 312.698 124.451 312.216 129.182L281.478 480.732C281.232 482.958 281.463 485.211 282.156 487.341C282.848 489.47 283.986 491.427 285.494 493.082C287.003 494.736 288.846 496.05 290.901 496.934C292.956 497.819 295.176 498.255 297.413 498.214H465.938C470.689 498.126 475.244 496.299 478.741 493.078C482.238 489.857 484.435 485.465 484.916 480.732L515.639 129.182C515.889 126.955 515.662 124.7 514.973 122.568C514.283 120.436 513.147 118.475 511.64 116.818C510.134 115.16 508.291 113.844 506.235 112.956C504.179 112.068 501.958 111.63 499.719 111.67Z" fill="url(#paint6_linear_11310_54212)"/>
<path d="M457.725 302.692H339.788C338.978 302.705 338.173 302.546 337.429 302.224C336.685 301.903 336.017 301.427 335.47 300.828C334.924 300.228 334.511 299.52 334.258 298.749C334.006 297.977 333.921 297.161 334.007 296.354L334.604 289.589C334.779 287.873 335.576 286.281 336.844 285.113C338.112 283.946 339.763 283.283 341.486 283.251H459.438C460.248 283.238 461.052 283.397 461.797 283.719C462.541 284.04 463.209 284.516 463.755 285.115C464.302 285.715 464.715 286.423 464.967 287.194C465.219 287.966 465.305 288.782 465.218 289.589L464.637 296.354C464.458 298.074 463.656 299.668 462.382 300.836C461.108 302.003 459.452 302.664 457.725 302.692Z" fill="white"/>
<path d="M455.186 331.776H337.234C336.424 331.789 335.62 331.63 334.876 331.309C334.132 330.987 333.466 330.511 332.92 329.911C332.375 329.312 331.963 328.603 331.713 327.831C331.462 327.06 331.379 326.244 331.468 325.438L332.049 318.673C332.228 316.958 333.026 315.368 334.293 314.201C335.56 313.034 337.209 312.371 338.931 312.335H456.883C457.694 312.322 458.498 312.481 459.242 312.803C459.987 313.124 460.654 313.6 461.201 314.199C461.747 314.799 462.161 315.507 462.413 316.278C462.665 317.05 462.75 317.866 462.664 318.673L462.067 325.438C461.889 327.153 461.091 328.743 459.824 329.91C458.556 331.077 456.907 331.74 455.186 331.776Z" fill="white"/>
<path opacity="0.3" d="M421.896 118.252C421.702 120.157 420.816 121.925 419.407 123.22C417.998 124.515 416.163 125.247 414.25 125.278C413.351 125.295 412.459 125.119 411.633 124.763C410.807 124.407 410.066 123.879 409.46 123.215C408.854 122.55 408.396 121.764 408.117 120.908C407.838 120.052 407.744 119.147 407.842 118.252C408.037 116.347 408.922 114.58 410.332 113.285C411.741 111.99 413.576 111.257 415.489 111.226C416.388 111.21 417.28 111.386 418.106 111.741C418.932 112.097 419.672 112.625 420.279 113.29C420.885 113.955 421.343 114.741 421.622 115.597C421.9 116.452 421.994 117.358 421.896 118.252Z" fill="url(#paint7_linear_11310_54212)"/>
<path opacity="0.4" d="M418.714 118.252C418.606 119.292 418.122 120.257 417.353 120.964C416.584 121.672 415.583 122.074 414.539 122.094C414.047 122.104 413.559 122.008 413.107 121.814C412.655 121.62 412.25 121.331 411.919 120.967C411.587 120.604 411.337 120.173 411.185 119.705C411.033 119.237 410.982 118.741 411.037 118.252C411.142 117.211 411.625 116.245 412.394 115.536C413.164 114.828 414.166 114.427 415.212 114.41C415.703 114.403 416.19 114.5 416.64 114.695C417.091 114.891 417.495 115.179 417.826 115.542C418.157 115.906 418.408 116.335 418.561 116.802C418.714 117.269 418.766 117.763 418.714 118.252Z" fill="url(#paint8_linear_11310_54212)"/>
<g opacity="0.8">
<path d="M478.966 129.978C478.702 129.981 478.44 129.929 478.198 129.824C477.956 129.719 477.739 129.563 477.561 129.368C477.383 129.173 477.249 128.942 477.167 128.691C477.085 128.44 477.057 128.174 477.085 127.911L477.421 124.146C477.477 123.589 477.736 123.073 478.148 122.695C478.559 122.316 479.095 122.103 479.654 122.094C479.917 122.091 480.177 122.143 480.418 122.247C480.659 122.351 480.875 122.505 481.053 122.699C481.23 122.892 481.365 123.121 481.448 123.371C481.531 123.62 481.561 123.884 481.535 124.146L481.199 127.911C481.143 128.469 480.885 128.987 480.473 129.368C480.062 129.749 479.526 129.966 478.966 129.978Z" fill="url(#paint9_linear_11310_54212)"/>
<path d="M495.421 129.978C495.157 129.982 494.895 129.929 494.653 129.824C494.411 129.719 494.194 129.564 494.016 129.368C493.838 129.173 493.704 128.942 493.622 128.691C493.54 128.44 493.512 128.174 493.54 127.911L494.32 119.079C494.376 118.522 494.635 118.006 495.046 117.628C495.458 117.25 495.994 117.036 496.553 117.028C496.815 117.024 497.075 117.076 497.316 117.181C497.558 117.285 497.774 117.439 497.951 117.632C498.129 117.826 498.264 118.055 498.347 118.304C498.43 118.553 498.459 118.817 498.434 119.079L497.654 127.911C497.598 128.469 497.34 128.987 496.929 129.368C496.517 129.749 495.981 129.966 495.421 129.978Z" fill="url(#paint10_linear_11310_54212)"/>
<path d="M487.194 129.978C486.93 129.981 486.669 129.929 486.426 129.824C486.184 129.719 485.967 129.564 485.789 129.368C485.612 129.173 485.477 128.942 485.395 128.691C485.313 128.44 485.285 128.174 485.313 127.911L485.864 121.62C485.92 121.059 486.18 120.539 486.595 120.158C487.009 119.777 487.549 119.562 488.112 119.553C488.375 119.549 488.636 119.602 488.878 119.707C489.12 119.812 489.336 119.968 489.513 120.164C489.689 120.359 489.822 120.59 489.902 120.841C489.982 121.093 490.008 121.358 489.978 121.62L489.427 127.911C489.371 128.469 489.113 128.987 488.702 129.368C488.291 129.749 487.754 129.966 487.194 129.978Z" fill="url(#paint11_linear_11310_54212)"/>
</g>
<g opacity="0.8">
<path d="M338.076 129.978H327.738C327.589 129.981 327.442 129.952 327.305 129.893C327.168 129.835 327.046 129.747 326.946 129.637C326.846 129.527 326.771 129.396 326.725 129.254C326.68 129.112 326.665 128.962 326.683 128.814L327.157 123.258C327.191 122.942 327.338 122.65 327.572 122.436C327.806 122.222 328.11 122.1 328.426 122.094H338.764C338.913 122.091 339.061 122.12 339.197 122.179C339.334 122.238 339.457 122.325 339.557 122.435C339.657 122.546 339.732 122.676 339.777 122.818C339.823 122.96 339.837 123.11 339.819 123.258L339.33 128.814C339.303 129.13 339.16 129.424 338.928 129.639C338.696 129.854 338.392 129.975 338.076 129.978Z" fill="white"/>
<path d="M342.863 128.462C342.714 128.465 342.565 128.436 342.428 128.378C342.291 128.319 342.167 128.232 342.066 128.122C341.965 128.012 341.888 127.882 341.841 127.74C341.794 127.598 341.777 127.448 341.793 127.299L342.022 124.758C342.052 124.441 342.199 124.147 342.433 123.932C342.668 123.717 342.973 123.597 343.291 123.594C343.44 123.591 343.588 123.62 343.724 123.679C343.861 123.738 343.984 123.825 344.084 123.935C344.184 124.046 344.259 124.176 344.304 124.318C344.35 124.46 344.364 124.61 344.346 124.758L344.132 127.299C344.099 127.614 343.951 127.907 343.718 128.121C343.484 128.335 343.18 128.457 342.863 128.462Z" fill="white"/>
</g>
<path d="M438.293 258.194C458.871 238.475 460.924 207.192 442.877 188.322C424.83 169.452 393.517 170.139 372.939 189.858C352.36 209.577 350.308 240.86 368.355 259.73C386.402 278.601 417.714 277.913 438.293 258.194Z" fill="url(#paint12_linear_11310_54212)"/>
<path d="M405.792 222.144C392.824 222.144 381.859 227.088 380.927 237.819L379.887 249.743H426.881L427.921 237.819C428.854 227.088 418.776 222.144 405.792 222.144Z" fill="url(#paint13_linear_11310_54212)"/>
<path d="M406.221 217.23C412.246 217.23 415.029 212.347 415.549 206.316C416.069 200.285 414.158 195.402 408.133 195.402C402.107 195.402 399.339 200.3 398.804 206.316C398.269 212.332 400.196 217.23 406.221 217.23Z" fill="url(#paint14_linear_11310_54212)"/>
<path d="M452.34 292.558C449.144 292.558 446.437 293.783 446.223 296.431L445.963 299.385H457.57L457.83 296.431C458.044 293.783 455.551 292.558 452.34 292.558Z" fill="url(#paint15_linear_11310_54212)"/>
<path d="M452.447 291.349C453.976 291.349 454.619 290.14 454.756 288.655C454.894 287.17 454.405 285.961 452.921 285.961C451.438 285.961 450.75 287.17 450.612 288.655C450.474 290.14 450.964 291.349 452.447 291.349Z" fill="url(#paint16_linear_11310_54212)"/>
<path d="M416.618 360.86H370.74C369.496 360.883 368.261 360.64 367.118 360.148C365.975 359.655 364.95 358.925 364.111 358.006C363.272 357.086 362.638 355.998 362.252 354.814C361.865 353.631 361.735 352.378 361.87 351.14C362.142 348.508 363.367 346.066 365.314 344.275C367.26 342.485 369.794 341.469 372.437 341.42H418.315C419.558 341.4 420.792 341.644 421.933 342.137C423.075 342.63 424.099 343.36 424.938 344.279C425.776 345.198 426.41 346.285 426.798 347.468C427.185 348.651 427.317 349.902 427.185 351.14C426.916 353.773 425.692 356.217 423.745 358.008C421.797 359.799 419.262 360.814 416.618 360.86Z" fill="url(#paint17_linear_11310_54212)"/>
<path d="M411.068 469.267H361.963C360.646 469.303 359.336 469.054 358.123 468.538C356.911 468.022 355.823 467.25 354.935 466.275C354.047 465.301 353.379 464.146 352.977 462.89C352.575 461.634 352.448 460.306 352.604 458.996L355.739 423.146C356.019 420.365 357.309 417.783 359.364 415.89C361.418 413.997 364.095 412.924 366.887 412.875H416.007C417.321 412.852 418.625 413.109 419.831 413.629C421.038 414.15 422.12 414.922 423.005 415.894C423.891 416.865 424.559 418.015 424.966 419.265C425.373 420.516 425.51 421.839 425.366 423.146L422.231 458.996C421.944 461.777 420.65 464.357 418.594 466.249C416.537 468.141 413.86 469.215 411.068 469.267Z" fill="url(#paint18_linear_11310_54212)"/>
<path d="M395.928 432.193C396.008 431.41 395.922 430.62 395.674 429.873C395.426 429.127 395.023 428.442 394.491 427.863C393.959 427.284 393.311 426.825 392.588 426.516C391.866 426.207 391.086 426.055 390.3 426.07C388.627 426.094 387.021 426.73 385.784 427.858C384.548 428.986 383.766 430.527 383.587 432.193C383.49 433.124 383.628 434.065 383.988 434.929C384.349 435.793 384.921 436.552 385.651 437.137L384.581 449.49C384.529 449.958 384.577 450.432 384.722 450.879C384.867 451.327 385.107 451.739 385.424 452.087C385.741 452.435 386.128 452.711 386.561 452.896C386.993 453.082 387.46 453.173 387.93 453.164C388.927 453.143 389.881 452.758 390.613 452.081C391.346 451.404 391.806 450.483 391.906 449.49L392.992 437.137C393.811 436.576 394.498 435.843 395.006 434.989C395.513 434.135 395.828 433.181 395.928 432.193Z" fill="white"/>
<path d="M416.434 420.345H410.103L411.632 402.603C411.899 400.141 411.64 397.65 410.872 395.296C410.103 392.941 408.844 390.777 407.176 388.948C405.509 387.118 403.471 385.664 401.2 384.682C398.928 383.701 396.473 383.214 393.999 383.255C388.742 383.358 383.703 385.382 379.832 388.946C375.962 392.51 373.528 397.367 372.987 402.603L371.458 420.345H365.127L366.656 402.603C367.369 395.654 370.597 389.207 375.733 384.478C380.869 379.748 387.557 377.065 394.535 376.933C397.819 376.877 401.077 377.521 404.093 378.822C407.109 380.123 409.814 382.051 412.029 384.479C414.243 386.907 415.916 389.779 416.937 392.904C417.957 396.029 418.302 399.335 417.948 402.603L416.434 420.345Z" fill="url(#paint19_linear_11310_54212)"/>
<path d="M453.122 319.729L453.32 317.999C453.361 317.598 453.317 317.193 453.191 316.811C453.065 316.428 452.859 316.076 452.588 315.779C452.316 315.481 451.985 315.244 451.616 315.083C451.247 314.922 450.848 314.842 450.445 314.846C449.589 314.864 448.768 315.194 448.137 315.774C447.506 316.355 447.109 317.146 447.02 317.999L446.867 319.698C446.524 319.708 446.197 319.842 445.946 320.076C445.696 320.31 445.539 320.627 445.506 320.969L445.108 325.561C445.088 325.722 445.103 325.884 445.152 326.039C445.201 326.193 445.283 326.334 445.392 326.454C445.501 326.573 445.635 326.667 445.784 326.73C445.933 326.792 446.094 326.822 446.255 326.816H452.556C452.897 326.81 453.224 326.679 453.475 326.448C453.726 326.217 453.883 325.901 453.917 325.561L454.314 320.969C454.328 320.807 454.306 320.643 454.251 320.49C454.197 320.337 454.11 320.197 453.997 320.08C453.885 319.962 453.748 319.87 453.597 319.81C453.446 319.749 453.284 319.722 453.122 319.729ZM450.262 315.657C450.565 315.653 450.866 315.714 451.144 315.835C451.423 315.955 451.673 316.133 451.878 316.357C452.083 316.581 452.238 316.846 452.334 317.134C452.43 317.422 452.464 317.728 452.433 318.03L452.28 319.729H447.54L447.693 318.03C447.759 317.389 448.057 316.795 448.53 316.358C449.003 315.922 449.619 315.672 450.262 315.657Z" fill="url(#paint20_linear_11310_54212)"/>
<path d="M358.278 321.55L356.075 321.091C356.014 321.078 355.956 321.052 355.907 321.014C355.857 320.976 355.817 320.927 355.789 320.871C355.761 320.815 355.746 320.753 355.745 320.691C355.745 320.628 355.758 320.566 355.785 320.509L356.702 318.336C356.741 318.242 356.744 318.137 356.713 318.041C356.681 317.945 356.617 317.863 356.531 317.809C356.444 317.756 356.342 317.735 356.242 317.75C356.142 317.765 356.05 317.815 355.984 317.892L354.317 319.606C354.277 319.657 354.226 319.698 354.167 319.727C354.109 319.755 354.045 319.77 353.98 319.77C353.916 319.77 353.852 319.755 353.793 319.727C353.735 319.698 353.684 319.657 353.644 319.606L352.283 317.892C351.992 317.524 351.365 317.892 351.472 318.336L352.008 320.509C352.023 320.573 352.026 320.639 352.015 320.703C352.003 320.768 351.979 320.829 351.943 320.884C351.907 320.938 351.861 320.985 351.806 321.021C351.751 321.056 351.69 321.08 351.625 321.091L349.347 321.55C348.857 321.642 348.796 322.331 349.27 322.423L351.472 322.882C351.534 322.894 351.592 322.92 351.642 322.958C351.691 322.996 351.731 323.046 351.758 323.103C351.785 323.159 351.798 323.222 351.796 323.284C351.794 323.347 351.778 323.409 351.748 323.464L350.861 325.653C350.822 325.747 350.819 325.851 350.85 325.947C350.882 326.044 350.946 326.126 351.032 326.179C351.119 326.232 351.221 326.253 351.321 326.238C351.421 326.223 351.513 326.173 351.579 326.097L353.246 324.382C353.289 324.336 353.341 324.299 353.399 324.273C353.457 324.248 353.52 324.235 353.583 324.235C353.646 324.235 353.708 324.248 353.766 324.273C353.824 324.299 353.876 324.336 353.919 324.382L355.28 326.097C355.571 326.464 356.198 326.097 356.075 325.653L355.54 323.479C355.518 323.349 355.547 323.216 355.621 323.107C355.695 322.999 355.809 322.923 355.938 322.897L358.216 322.438C358.69 322.331 358.752 321.642 358.278 321.55Z" fill="#263238"/>
<path d="M372.742 321.55L370.54 321.091C370.479 321.078 370.421 321.052 370.372 321.014C370.322 320.976 370.282 320.927 370.254 320.871C370.226 320.815 370.211 320.753 370.21 320.691C370.209 320.628 370.223 320.566 370.25 320.509L371.167 318.336C371.205 318.242 371.209 318.137 371.178 318.041C371.146 317.945 371.082 317.863 370.996 317.809C370.909 317.756 370.807 317.735 370.707 317.75C370.607 317.765 370.515 317.815 370.448 317.892L368.782 319.606C368.742 319.657 368.69 319.698 368.632 319.727C368.574 319.755 368.51 319.77 368.445 319.77C368.38 319.77 368.316 319.755 368.258 319.727C368.2 319.698 368.149 319.657 368.109 319.606L366.748 317.892C366.457 317.524 365.83 317.892 365.952 318.336L366.488 320.509C366.501 320.574 366.501 320.64 366.488 320.705C366.475 320.769 366.449 320.83 366.412 320.885C366.375 320.939 366.327 320.985 366.272 321.021C366.217 321.056 366.155 321.08 366.09 321.091L363.812 321.55C363.322 321.642 363.261 322.331 363.735 322.423L365.937 322.882C365.998 322.895 366.056 322.921 366.106 322.959C366.155 322.997 366.196 323.046 366.224 323.102C366.252 323.158 366.267 323.22 366.267 323.282C366.268 323.345 366.254 323.407 366.228 323.464L365.31 325.637C365.272 325.731 365.268 325.836 365.3 325.932C365.331 326.028 365.396 326.11 365.482 326.164C365.568 326.217 365.67 326.238 365.77 326.223C365.871 326.208 365.962 326.158 366.029 326.081L367.696 324.367C367.739 324.32 367.791 324.283 367.849 324.258C367.907 324.233 367.969 324.22 368.032 324.22C368.095 324.22 368.158 324.233 368.216 324.258C368.274 324.283 368.326 324.32 368.369 324.367L369.73 326.081C370.02 326.449 370.647 326.081 370.54 325.637L370.005 323.464C369.992 323.4 369.991 323.335 370.003 323.271C370.015 323.208 370.039 323.147 370.075 323.093C370.111 323.039 370.156 322.992 370.21 322.956C370.264 322.92 370.324 322.895 370.387 322.882L372.666 322.423C373.155 322.331 373.216 321.642 372.742 321.55Z" fill="url(#paint21_linear_11310_54212)"/>
<path d="M387.21 321.55L385.023 321.091C384.96 321.081 384.9 321.057 384.849 321.019C384.797 320.982 384.755 320.933 384.727 320.876C384.698 320.819 384.684 320.756 384.685 320.692C384.686 320.628 384.702 320.566 384.732 320.509L385.65 318.336C385.708 318.238 385.726 318.121 385.699 318.011C385.672 317.9 385.602 317.805 385.504 317.746C385.407 317.688 385.29 317.67 385.18 317.697C385.069 317.724 384.974 317.794 384.916 317.892L383.264 319.606C383.222 319.657 383.17 319.699 383.11 319.727C383.051 319.755 382.986 319.77 382.92 319.77C382.854 319.77 382.789 319.755 382.729 319.727C382.67 319.699 382.617 319.657 382.576 319.606L381.215 317.892C380.924 317.524 380.297 317.892 380.42 318.336L380.955 320.509C380.968 320.573 380.969 320.638 380.957 320.702C380.945 320.765 380.92 320.826 380.885 320.88C380.849 320.934 380.803 320.981 380.75 321.017C380.696 321.053 380.636 321.078 380.573 321.091L378.294 321.55C377.805 321.642 377.743 322.331 378.217 322.423L380.404 322.882C380.466 322.895 380.523 322.921 380.573 322.959C380.623 322.997 380.663 323.046 380.691 323.102C380.719 323.158 380.734 323.22 380.735 323.283C380.735 323.345 380.722 323.407 380.695 323.464L379.777 325.637C379.719 325.735 379.701 325.852 379.728 325.962C379.755 326.073 379.825 326.168 379.923 326.227C380.02 326.286 380.137 326.303 380.247 326.276C380.357 326.249 380.453 326.179 380.511 326.081L382.163 324.367C382.206 324.321 382.258 324.284 382.316 324.258C382.374 324.233 382.436 324.22 382.499 324.22C382.563 324.22 382.625 324.233 382.683 324.258C382.741 324.284 382.793 324.321 382.836 324.367L384.212 326.081C384.503 326.449 385.13 326.081 385.007 325.637L384.472 323.464C384.449 323.336 384.476 323.205 384.547 323.096C384.618 322.988 384.728 322.911 384.854 322.882L387.133 322.423C387.561 322.331 387.684 321.642 387.21 321.55Z" fill="url(#paint22_linear_11310_54212)"/>
<path d="M401.692 321.55L399.49 321.091C399.429 321.078 399.371 321.052 399.322 321.014C399.272 320.976 399.232 320.927 399.204 320.871C399.176 320.815 399.161 320.753 399.16 320.691C399.159 320.628 399.173 320.566 399.2 320.509L400.117 318.336C400.155 318.242 400.159 318.137 400.128 318.041C400.096 317.945 400.032 317.863 399.945 317.809C399.859 317.756 399.757 317.735 399.657 317.75C399.557 317.765 399.465 317.815 399.398 317.892L397.731 319.606C397.691 319.657 397.64 319.698 397.582 319.727C397.524 319.755 397.46 319.77 397.395 319.77C397.33 319.77 397.266 319.755 397.208 319.727C397.15 319.698 397.099 319.657 397.059 319.606L395.698 317.892C395.407 317.524 394.78 317.892 394.887 318.336L395.422 320.509C395.438 320.573 395.44 320.639 395.429 320.703C395.418 320.768 395.394 320.829 395.358 320.884C395.322 320.938 395.275 320.985 395.221 321.021C395.166 321.056 395.104 321.08 395.04 321.091L392.761 321.55C392.272 321.642 392.211 322.331 392.761 322.423L394.964 322.882C395.025 322.894 395.083 322.92 395.133 322.958C395.182 322.996 395.222 323.046 395.249 323.103C395.276 323.159 395.289 323.222 395.287 323.284C395.285 323.347 395.269 323.409 395.239 323.464L394.337 325.637C394.298 325.731 394.295 325.836 394.326 325.932C394.358 326.028 394.422 326.11 394.508 326.164C394.595 326.217 394.697 326.238 394.797 326.223C394.897 326.208 394.989 326.158 395.055 326.081L396.722 324.367C396.765 324.32 396.817 324.283 396.875 324.258C396.933 324.233 396.995 324.22 397.059 324.22C397.122 324.22 397.184 324.233 397.242 324.258C397.3 324.283 397.352 324.32 397.395 324.367L398.756 326.081C399.047 326.449 399.674 326.081 399.551 325.637L399.016 323.464C398.994 323.334 399.023 323.201 399.097 323.092C399.171 322.983 399.285 322.908 399.414 322.882L401.692 322.423C402.105 322.331 402.166 321.642 401.692 321.55Z" fill="url(#paint23_linear_11310_54212)"/>
<path d="M416.158 321.551L413.956 321.091C413.895 321.079 413.837 321.052 413.788 321.014C413.738 320.976 413.698 320.927 413.67 320.871C413.642 320.815 413.627 320.753 413.626 320.691C413.625 320.628 413.639 320.566 413.666 320.51L414.583 318.336C414.621 318.242 414.625 318.138 414.594 318.041C414.562 317.945 414.498 317.863 414.412 317.81C414.325 317.756 414.223 317.735 414.123 317.751C414.023 317.766 413.931 317.816 413.865 317.892L412.198 319.606C412.158 319.657 412.106 319.699 412.048 319.727C411.99 319.755 411.926 319.77 411.861 319.77C411.796 319.77 411.733 319.755 411.674 319.727C411.616 319.699 411.565 319.657 411.525 319.606L410.164 317.892C409.873 317.525 409.246 317.892 409.369 318.336L409.904 320.51C409.917 320.574 409.917 320.64 409.904 320.705C409.891 320.769 409.865 320.831 409.828 320.885C409.791 320.939 409.744 320.985 409.688 321.021C409.633 321.056 409.571 321.08 409.506 321.091L407.228 321.551C406.738 321.642 406.677 322.331 407.151 322.423L409.353 322.882C409.415 322.895 409.472 322.921 409.522 322.959C409.571 322.997 409.612 323.046 409.64 323.102C409.668 323.158 409.683 323.22 409.683 323.283C409.684 323.345 409.671 323.407 409.644 323.464L408.726 325.638C408.688 325.731 408.684 325.836 408.716 325.932C408.747 326.029 408.812 326.111 408.898 326.164C408.984 326.217 409.086 326.238 409.187 326.223C409.287 326.208 409.378 326.158 409.445 326.081L411.112 324.367C411.155 324.321 411.207 324.284 411.265 324.258C411.323 324.233 411.385 324.22 411.448 324.22C411.511 324.22 411.574 324.233 411.632 324.258C411.69 324.284 411.742 324.321 411.785 324.367L413.146 326.081C413.436 326.449 414.063 326.081 413.956 325.638L413.421 323.464C413.408 323.401 413.407 323.335 413.419 323.272C413.431 323.208 413.455 323.147 413.491 323.093C413.527 323.039 413.572 322.993 413.626 322.956C413.68 322.92 413.74 322.895 413.803 322.882L416.082 322.423C416.617 322.331 416.617 321.642 416.158 321.551Z" fill="url(#paint24_linear_11310_54212)"/>
<path d="M430.628 321.551L428.425 321.091C428.364 321.08 428.306 321.054 428.256 321.015C428.207 320.977 428.167 320.927 428.14 320.871C428.113 320.814 428.1 320.752 428.102 320.689C428.104 320.626 428.12 320.565 428.15 320.51L429.068 318.336C429.097 318.288 429.116 318.234 429.125 318.179C429.133 318.123 429.13 318.066 429.117 318.011C429.103 317.956 429.079 317.905 429.046 317.86C429.013 317.814 428.971 317.776 428.922 317.747C428.874 317.717 428.821 317.698 428.765 317.69C428.709 317.681 428.653 317.684 428.598 317.697C428.543 317.711 428.492 317.735 428.446 317.768C428.401 317.802 428.363 317.844 428.334 317.892L426.682 319.606C426.64 319.658 426.588 319.699 426.528 319.727C426.469 319.756 426.404 319.77 426.338 319.77C426.272 319.77 426.207 319.756 426.147 319.727C426.088 319.699 426.035 319.658 425.994 319.606L424.633 317.892C424.342 317.525 423.715 317.892 423.838 318.336L424.373 320.51C424.386 320.573 424.387 320.638 424.375 320.702C424.363 320.766 424.338 320.826 424.303 320.88C424.267 320.934 424.221 320.981 424.168 321.017C424.114 321.053 424.054 321.079 423.991 321.091L421.712 321.551C421.223 321.642 421.161 322.331 421.635 322.423L423.822 322.882C423.884 322.895 423.941 322.921 423.991 322.959C424.041 322.997 424.081 323.046 424.109 323.102C424.137 323.158 424.152 323.22 424.153 323.283C424.153 323.345 424.14 323.407 424.113 323.464L423.195 325.638C423.136 325.735 423.119 325.852 423.146 325.962C423.173 326.073 423.243 326.168 423.341 326.227C423.438 326.286 423.555 326.304 423.665 326.276C423.775 326.249 423.871 326.179 423.929 326.082L425.581 324.367C425.624 324.321 425.676 324.284 425.734 324.258C425.792 324.233 425.854 324.22 425.917 324.22C425.981 324.22 426.043 324.233 426.101 324.258C426.159 324.284 426.211 324.321 426.254 324.367L427.615 326.082C427.686 326.162 427.782 326.215 427.888 326.234C427.994 326.252 428.102 326.234 428.197 326.182C428.291 326.131 428.364 326.049 428.406 325.95C428.448 325.851 428.454 325.741 428.425 325.638L427.89 323.464C427.867 323.336 427.894 323.205 427.965 323.097C428.036 322.988 428.146 322.912 428.272 322.882L430.551 322.423C431.04 322.331 431.102 321.642 430.628 321.551Z" fill="url(#paint25_linear_11310_54212)"/>
<path d="M395.743 289.849H368.583C367.75 289.863 366.95 290.182 366.336 290.746C365.722 291.31 365.335 292.08 365.25 292.91C365.206 293.301 365.246 293.696 365.368 294.07C365.489 294.444 365.689 294.787 365.954 295.077C366.219 295.367 366.543 295.597 366.904 295.751C367.266 295.905 367.656 295.98 368.048 295.972H395.208C396.041 295.957 396.841 295.638 397.455 295.074C398.069 294.51 398.456 293.74 398.542 292.91C398.583 292.52 398.541 292.125 398.418 291.753C398.296 291.38 398.096 291.038 397.831 290.748C397.567 290.459 397.244 290.229 396.884 290.074C396.524 289.919 396.135 289.842 395.743 289.849Z" fill="url(#paint26_linear_11310_54212)"/>
<path d="M423.331 289.849H407.564C406.732 289.863 405.935 290.183 405.323 290.748C404.711 291.312 404.328 292.081 404.246 292.91C404.202 293.299 404.242 293.694 404.363 294.066C404.483 294.439 404.682 294.781 404.945 295.071C405.209 295.361 405.531 295.591 405.89 295.746C406.249 295.902 406.638 295.978 407.029 295.972H422.734C423.566 295.957 424.364 295.637 424.975 295.073C425.587 294.508 425.971 293.739 426.053 292.91C426.096 292.526 426.057 292.137 425.94 291.769C425.823 291.4 425.63 291.061 425.373 290.772C425.117 290.483 424.802 290.252 424.45 290.093C424.098 289.934 423.717 289.851 423.331 289.849Z" fill="url(#paint27_linear_11310_54212)"/>
<path d="M444.144 428.611C434.544 432.271 425.878 438.022 418.773 445.449C414.459 442.096 409.316 439.98 403.894 439.326L403.175 439.219L402.869 442.831L403.267 442.984C409.214 445.176 414.243 449.32 417.535 454.741L418.055 455.598L418.621 454.679C424.954 444.559 433.891 436.332 444.496 430.861L444.847 430.677L445.046 428.289L444.144 428.611Z" fill="white"/>
<path opacity="0.2" d="M307.489 127.222C305.54 130.628 304.341 134.412 303.972 138.32L281.201 398.883H351.67L365.831 344.557L361.166 290.216L375.327 235.89L370.739 181.564L384.9 127.222H307.489Z" fill="black"/>
<path d="M364.548 166.256L378.709 111.915H200.504L186.359 166.256L191.008 220.582L176.862 274.908L181.511 329.25L167.365 383.576H345.555L359.716 329.25L355.052 274.908L369.213 220.582L364.548 166.256Z" fill="#407BFF"/>
<path opacity="0.75" d="M364.548 166.256L378.709 111.915H200.504L186.359 166.256L191.008 220.582L176.862 274.908L181.511 329.25L167.365 383.576H345.555L359.716 329.25L355.052 274.908L369.213 220.582L364.548 166.256Z" fill="white"/>
<path d="M364.547 166.256H186.357L200.503 111.915H378.708L364.547 166.256Z" fill="#EFF1FE"/>
<path d="M355.053 274.908H176.863L191.009 220.582H369.214L355.053 274.908Z" fill="#EFF1FE"/>
<path d="M345.555 383.576H167.35L181.511 329.25H359.716L345.555 383.576Z" fill="#EFF1FE"/>
<path opacity="0.2" d="M340.707 188.957C338.878 189.486 336.982 189.744 335.079 189.723C332.498 189.837 329.93 189.311 327.601 188.192C327.18 187.942 326.699 187.81 326.209 187.809C325.76 187.815 325.319 187.931 324.925 188.146H324.833C324.15 188.53 323.42 188.823 322.661 189.018C320.95 189.471 319.186 189.692 317.416 189.677C316.881 189.677 316.361 189.677 315.887 189.677C314.513 189.588 313.154 189.347 311.834 188.957C311.64 188.899 311.44 188.863 311.238 188.85C310.901 188.823 310.563 188.865 310.244 188.975C309.925 189.085 309.632 189.259 309.383 189.488C309.135 189.716 308.936 189.994 308.8 190.303C308.664 190.612 308.593 190.946 308.592 191.284V192.937H239.225C237.95 192.937 236.688 193.189 235.511 193.677C234.334 194.166 233.264 194.882 232.364 195.785C231.463 196.688 230.749 197.759 230.263 198.939C229.777 200.118 229.527 201.382 229.529 202.657V212.439C229.525 213.716 229.773 214.981 230.259 216.162C230.744 217.343 231.458 218.417 232.358 219.321C233.259 220.225 234.329 220.943 235.507 221.433C236.686 221.922 237.949 222.174 239.225 222.174H318.028H318.548C319.389 222.878 320.276 223.583 321.224 224.302C322.172 225.021 323.518 226.016 324.756 226.904C325.179 227.211 325.688 227.375 326.209 227.375C326.731 227.375 327.239 227.211 327.662 226.904C337.572 219.71 343.933 214.75 343.933 201.127V191.33C343.938 190.938 343.85 190.551 343.675 190.2C343.5 189.849 343.245 189.546 342.929 189.314C342.614 189.082 342.247 188.928 341.861 188.866C341.474 188.804 341.079 188.835 340.707 188.957Z" fill="black"/>
<path d="M316.514 187.564H237.726C232.363 187.564 228.016 191.916 228.016 197.284V207.066C228.016 212.434 232.363 216.786 237.726 216.786H316.514C321.877 216.786 326.225 212.434 326.225 207.066V197.284C326.225 191.916 321.877 187.564 316.514 187.564Z" fill="url(#paint28_linear_11310_54212)"/>
<path d="M333.567 184.334C330.987 184.445 328.419 183.919 326.089 182.804C325.675 182.549 325.198 182.414 324.712 182.414C324.227 182.414 323.75 182.549 323.336 182.804C321.001 183.921 318.428 184.447 315.843 184.334C313.94 184.355 312.044 184.097 310.215 183.569C309.847 183.445 309.454 183.41 309.07 183.469C308.685 183.527 308.32 183.676 308.005 183.903C307.69 184.13 307.433 184.43 307.256 184.776C307.079 185.123 306.987 185.507 306.988 185.896V195.692C306.988 209.331 313.35 214.291 323.26 221.485C323.682 221.792 324.191 221.957 324.712 221.957C325.234 221.957 325.743 221.792 326.165 221.485C336.075 214.291 342.437 209.331 342.437 195.692V185.896C342.435 185.506 342.341 185.122 342.162 184.776C341.984 184.43 341.726 184.131 341.409 183.904C341.093 183.676 340.727 183.528 340.342 183.47C339.957 183.411 339.564 183.445 339.195 183.569C337.366 184.098 335.47 184.356 333.567 184.334Z" fill="#407BFF"/>
<path d="M333.567 184.334C330.987 184.445 328.419 183.919 326.089 182.804C325.675 182.549 325.198 182.414 324.712 182.414C324.227 182.414 323.75 182.549 323.336 182.804C321.001 183.921 318.428 184.447 315.843 184.334C313.94 184.355 312.044 184.097 310.215 183.569C309.847 183.445 309.454 183.41 309.07 183.469C308.685 183.527 308.32 183.676 308.005 183.903C307.69 184.13 307.433 184.43 307.256 184.776C307.079 185.123 306.987 185.507 306.988 185.896V195.692C306.988 209.331 313.35 214.291 323.26 221.485C323.682 221.792 324.191 221.957 324.712 221.957C325.234 221.957 325.743 221.792 326.165 221.485C336.075 214.291 342.437 209.331 342.437 195.692V185.896C342.435 185.506 342.341 185.122 342.162 184.776C341.984 184.43 341.726 184.131 341.409 183.904C341.093 183.676 340.727 183.528 340.342 183.47C339.957 183.411 339.564 183.445 339.195 183.569C337.366 184.098 335.47 184.356 333.567 184.334Z" fill="url(#paint29_linear_11310_54212)"/>
<path opacity="0.2" d="M323.336 182.773C321.001 183.891 318.428 184.416 315.843 184.304C313.94 184.323 312.044 184.065 310.215 183.538C309.847 183.414 309.454 183.38 309.07 183.438C308.685 183.496 308.32 183.645 308.005 183.873C307.69 184.1 307.433 184.399 307.256 184.746C307.079 185.092 306.987 185.476 306.988 185.865V195.662C306.988 209.301 313.35 214.26 323.26 221.455C323.703 221.777 324.241 221.944 324.789 221.929V182.375C324.276 182.365 323.772 182.503 323.336 182.773Z" fill="white"/>
<path d="M338.919 193.029C332.957 195.367 327.648 199.111 323.443 203.943C320.51 201.779 317.072 200.404 313.456 199.948H312.982V202.29L313.242 202.382C317.263 203.834 320.729 206.511 323.152 210.036L323.534 210.587L323.855 209.99C327.371 203.45 332.725 198.085 339.255 194.56L339.485 194.453V192.922L338.919 193.029Z" fill="white"/>
<path d="M375.56 127.207H368.801C367.931 127.223 367.068 127.054 366.27 126.709C365.471 126.365 364.754 125.855 364.168 125.211C363.582 124.568 363.14 123.807 362.87 122.979C362.601 122.152 362.512 121.276 362.608 120.41L363.204 113.645C363.387 111.804 364.239 110.096 365.598 108.843C366.957 107.59 368.728 106.88 370.575 106.848H377.334C378.205 106.83 379.07 106.998 379.871 107.341C380.672 107.684 381.39 108.194 381.978 108.838C382.565 109.481 383.009 110.243 383.279 111.072C383.549 111.901 383.639 112.778 383.543 113.645L382.947 120.41C382.741 122.244 381.88 123.942 380.523 125.191C379.166 126.44 377.403 127.156 375.56 127.207Z" fill="url(#paint30_linear_11310_54212)"/>
<path d="M378.373 113.629L376.905 112.007L373.204 115.405L370.115 112.007L368.357 113.629L371.461 117.027L367.775 120.426L369.243 122.033L372.929 118.635L376.033 122.033L377.777 120.426L374.672 117.027L378.373 113.629Z" fill="url(#paint31_linear_11310_54212)"/>
<path d="M224.5 185.574C228.415 189.845 232.147 194.269 235.863 198.723C239.579 203.178 243.173 207.724 246.751 212.286C246.904 212.485 246.843 212.408 246.873 212.469C246.904 212.531 246.873 212.546 246.873 212.561C246.9 212.618 246.936 212.67 246.98 212.714C247.111 212.9 247.277 213.057 247.468 213.178C247.66 213.299 247.873 213.381 248.097 213.418C248.269 213.442 248.444 213.442 248.617 213.418C248.708 213.426 248.8 213.426 248.892 213.418H249.03C249.106 213.418 249.03 213.418 249.274 213.327L253.098 211.245C258.236 208.52 263.42 205.857 268.772 203.469L273.253 209.025C268.941 212.99 264.445 217.965 259.903 221.608L256.477 224.302C256.264 224.476 256.04 224.635 255.804 224.777C255.545 224.961 255.274 225.13 254.994 225.282C254.44 225.601 253.868 225.887 253.281 226.139C252.096 226.637 250.852 226.982 249.58 227.165C247.007 227.543 244.381 227.28 241.934 226.399C240.689 225.957 239.507 225.355 238.417 224.608C237.866 224.241 237.346 223.812 236.887 223.399C236.627 223.185 236.413 222.94 236.169 222.71L235.557 222.098C231.504 217.934 227.513 213.74 223.598 209.469C219.683 205.198 215.814 200.897 212.113 196.427L224.5 185.574Z" fill="#FDCCC5"/>
<path d="M266.75 206.836L270.313 195.371L279.703 200.055C279.703 200.055 278.327 208.413 271.506 209.867L266.75 206.836Z" fill="#FDCCC5"/>
<path d="M274.061 192.202L282.533 194.529L279.688 200.055L270.299 195.371L274.061 192.202Z" fill="#FDCCC5"/>
<path d="M175.135 188.697C174.125 193.565 172.871 198.387 171.571 203.193C170.271 208 168.849 212.76 167.366 217.521L166.815 219.312L166.54 220.2C166.503 220.328 166.452 220.451 166.387 220.567C166.213 221.059 166.115 221.576 166.097 222.098C166.064 223.21 166.374 224.305 166.984 225.236C167.284 225.644 167.617 226.028 167.978 226.384L169.247 227.777L171.755 230.578C173.391 232.476 175.043 234.374 176.603 236.364L171.265 242.487C169.063 241.232 166.953 239.87 164.843 238.523L161.708 236.441L160.178 235.385C159.658 235.017 159.23 234.772 158.389 234.083C155.397 231.531 153.332 228.06 152.517 224.21C152.106 222.248 152.008 220.233 152.226 218.24C152.226 217.75 152.379 217.199 152.456 216.71L152.624 215.791L152.945 213.954C153.801 209.041 154.719 204.142 155.743 199.274C156.768 194.407 157.869 189.554 159.169 184.763L175.135 188.697Z" fill="#FDCCC5"/>
<path d="M171.371 235.874L177.672 232.645L180.455 243.36C180.455 243.36 175.393 245.304 171.478 242.809L171.371 235.874Z" fill="#B55B52"/>
<path d="M186.39 229.2L186.68 239.058L179.63 243.666L177.184 232.844L186.39 229.2Z" fill="#B55B52"/>
<path d="M207.019 138.091C207.172 138.841 207.708 139.376 208.197 139.285C208.686 139.193 208.977 138.489 208.824 137.754C208.671 137.019 208.136 136.468 207.646 136.56C207.157 136.652 206.866 137.371 207.019 138.091Z" fill="#263238"/>
<path d="M207.633 139.392C209.01 141.527 210.671 143.463 212.572 145.147C212.13 145.624 211.588 145.999 210.986 146.245C210.384 146.491 209.735 146.602 209.086 146.571L207.633 139.392Z" fill="#EDA098"/>
<path d="M203.397 134.447C203.309 134.446 203.223 134.42 203.149 134.371C203.076 134.323 203.018 134.254 202.982 134.173C202.947 134.092 202.935 134.003 202.949 133.916C202.963 133.829 203.001 133.748 203.06 133.682C203.539 133.14 204.139 132.718 204.811 132.452C205.484 132.186 206.209 132.083 206.929 132.151C206.988 132.162 207.045 132.185 207.096 132.218C207.146 132.251 207.19 132.293 207.224 132.343C207.258 132.393 207.282 132.449 207.294 132.508C207.307 132.567 207.307 132.628 207.296 132.687C207.287 132.746 207.266 132.802 207.235 132.852C207.204 132.903 207.162 132.946 207.114 132.981C207.065 133.015 207.011 133.039 206.953 133.052C206.895 133.064 206.835 133.065 206.776 133.054C206.206 133 205.631 133.082 205.099 133.295C204.567 133.508 204.093 133.846 203.718 134.279C203.636 134.374 203.521 134.434 203.397 134.447Z" fill="#263238"/>
<path d="M184.968 148.76C186.65 155.786 188.348 168.659 182.322 173.328C182.322 173.328 184.677 180.461 200.673 180.461C218.26 180.461 209.084 175.869 209.084 175.869C199.481 174.002 199.725 165.659 201.438 160.194L184.968 148.76Z" fill="#FDCCC5"/>
<path d="M180.439 174.629C179.399 172.685 178.236 170.45 180.622 169.746C183.252 168.981 200.12 167.557 205.09 168.996C203.561 171.706 206.145 175.119 206.145 175.119L180.439 174.629Z" fill="url(#paint32_linear_11310_54212)"/>
<path d="M194.418 503.097H205.444L206.545 480.87H195.504L194.418 503.097Z" fill="#FDCCC5"/>
<path d="M124.393 500.035L135.571 500.632L142.361 478.727L131.182 478.13L124.393 500.035Z" fill="#FDCCC5"/>
<path d="M135.236 499.744L124.699 497.463C124.514 497.421 124.321 497.444 124.151 497.528C123.981 497.611 123.845 497.751 123.766 497.923L120.111 505.867C120.021 506.06 119.977 506.271 119.981 506.484C119.985 506.697 120.038 506.906 120.135 507.095C120.233 507.284 120.372 507.449 120.543 507.575C120.714 507.702 120.911 507.788 121.12 507.827C124.806 508.561 126.641 508.73 131.275 509.74C134.119 510.352 140.557 511.929 144.488 512.802C148.418 513.674 149.779 509.878 148.25 509.174C141.368 506.036 138.493 503.265 136.627 500.678C136.292 500.208 135.798 499.876 135.236 499.744Z" fill="#070159"/>
<path d="M204.864 501.979H194.389C194.2 501.981 194.016 502.048 193.869 502.167C193.722 502.286 193.62 502.452 193.578 502.637L191.682 511.163C191.633 511.37 191.632 511.585 191.679 511.792C191.725 511.999 191.819 512.192 191.951 512.358C192.084 512.523 192.253 512.656 192.445 512.746C192.637 512.836 192.847 512.881 193.058 512.878C196.836 512.878 202.234 512.587 207.051 512.587C212.602 512.587 217.389 512.893 223.873 512.893C227.803 512.893 228.904 508.913 227.253 508.546C219.744 506.908 213.627 506.724 207.143 502.729C206.465 502.277 205.678 502.018 204.864 501.979Z" fill="#070159"/>
<path d="M162.334 176.573C154.015 180.538 151.752 204.571 151.752 204.571L172.351 214.092C175.833 208.213 177.73 201.53 177.856 194.697C178.269 182.283 170.852 172.578 162.334 176.573Z" fill="url(#paint33_linear_11310_54212)"/>
<path opacity="0.4" d="M173.467 191.391C169.751 197.177 170.103 206.117 171.388 213.663L172.305 214.092C175.784 208.212 177.681 201.53 177.811 194.698C177.811 193.963 177.811 193.167 177.811 192.509L173.467 191.391Z" fill="black"/>
<path d="M219.818 175.992C219.818 175.992 230.033 187.534 220.384 258.958H169.107C168.756 251.075 173.695 212.638 166.049 175.502C171.716 174.411 177.447 173.685 183.207 173.328C190.47 172.915 197.751 172.915 205.014 173.328C210.01 173.835 214.959 174.725 219.818 175.992Z" fill="#407BFF"/>
<path opacity="0.6" d="M219.818 175.992C219.818 175.992 230.033 187.534 220.384 258.958H169.107C168.756 251.075 173.695 212.638 166.049 175.502C171.716 174.411 177.447 173.685 183.207 173.328C190.47 172.915 197.751 172.915 205.014 173.328C210.01 173.835 214.959 174.725 219.818 175.992Z" fill="#FAFAFA"/>
<path opacity="0.2" d="M224.3 197.82L224.116 197.652L213.916 192.202C212.876 207.923 219.896 217.781 224.071 222.083C224.594 214.005 224.67 205.906 224.3 197.82Z" fill="#2161E0"/>
<path opacity="0.2" d="M206.545 480.87L205.979 492.335H194.938L195.503 480.87H206.545Z" fill="black"/>
<path opacity="0.2" d="M131.182 478.146L142.361 478.727L138.859 490.024L127.68 489.427L131.182 478.146Z" fill="black"/>
<path d="M181.42 141.627C183.882 150.811 184.861 156.337 190.595 160.164C199.129 165.92 209.742 159.307 210.078 149.556C210.369 140.785 206.301 127.207 196.437 125.355C194.259 124.924 192.008 125.058 189.897 125.746C187.786 126.434 185.887 127.653 184.38 129.285C182.874 130.917 181.811 132.909 181.292 135.069C180.774 137.23 180.818 139.488 181.42 141.627Z" fill="#FDCCC5"/>
<path d="M202.201 258.958C202.201 258.958 191.313 332.296 185.38 359.788C178.804 389.944 143.722 489.442 143.722 489.442L126.549 485.723C126.549 485.723 148.555 404.593 154.076 362.528C156.217 346.103 158.801 319.667 162.074 297.579C165.239 276.148 169.139 258.973 169.139 258.973L202.201 258.958Z" fill="url(#paint34_linear_11310_54212)"/>
<path d="M147.837 483.702L144.625 489.917L125.326 485.722L126.947 479.921L147.837 483.702Z" fill="#407BFF"/>
<path opacity="0.6" d="M147.837 483.702L144.625 489.917L125.326 485.722L126.947 479.921L147.837 483.702Z" fill="white"/>
<path d="M195.319 285.088C182.733 287.552 184.064 334.531 185.578 358.686C189.218 341.603 194.524 308.753 198.148 285.425C197.271 284.992 196.273 284.874 195.319 285.088Z" fill="#2161E0"/>
<path d="M220.385 258.958C220.385 258.958 225.508 330.719 224.468 359.987C223.382 390.434 208.961 490.101 208.961 490.101H192.72C192.72 490.101 192.124 392.133 191.405 362.299C190.61 329.694 186.68 258.943 186.68 258.943L220.385 258.958Z" fill="url(#paint35_linear_11310_54212)"/>
<path d="M212.082 483.641C212.158 483.641 211.164 490.391 211.164 490.391H191.406L190.871 484.36L212.082 483.641Z" fill="#407BFF"/>
<path opacity="0.6" d="M212.082 483.641C212.158 483.641 211.164 490.391 211.164 490.391H191.406L190.871 484.36L212.082 483.641Z" fill="white"/>
<path d="M213.84 189.416C213.84 208.673 224.071 216.602 224.071 216.602L240.755 200.346C236.806 193.74 232.309 187.478 227.313 181.625C217.663 170.558 213.84 177.048 213.84 189.416Z" fill="url(#paint36_linear_11310_54212)"/>
<path d="M209.436 153.046C209.096 154.011 208.525 154.878 207.773 155.572C207.022 156.265 206.112 156.765 205.123 157.026C204.036 157.248 203.049 157.814 202.308 158.641C201.567 159.468 201.112 160.512 201.01 161.618C202.99 160.955 204.785 159.833 206.25 158.343C207.714 156.854 208.806 155.038 209.436 153.046Z" fill="#EDA098"/>
<path d="M205.121 123.334C208.547 119.002 203.271 118.742 203.271 118.742C204.647 113.583 198.469 116.354 198.469 116.354C194.768 111.241 192.673 117.471 192.673 117.471C188.835 113.139 188.085 120.211 188.085 120.211C184.231 114.716 182.274 122.645 182.274 122.645C178.726 116.936 176.555 124.36 176.555 124.36C169.229 121.742 172.701 129.365 172.701 129.365C166.461 129.534 171.477 134.386 171.477 134.386C163.984 134.386 170.59 138.688 170.59 138.688C164.642 142.591 172.12 143.647 172.12 143.647C167.272 151.301 175.606 148.423 175.606 148.423C172.227 155.954 179.705 152.633 179.705 152.633C179.231 159.888 183.406 157.914 185.424 156.567C185.807 158.097 186.541 159.628 187.886 159.751C190.501 160.103 190.945 155.158 190.945 155.158C190.945 155.158 193.361 157.056 195.395 156.031C197.429 155.005 196.664 152.418 196.664 152.418C197.106 152.749 197.642 152.927 198.194 152.927C198.745 152.927 199.281 152.749 199.723 152.418C200.595 151.745 200.595 146.877 199.493 145.163L203.47 143.632C203.47 143.632 206.421 143.219 205.106 139.315C204.312 137.072 204.243 134.635 204.907 132.35C209.403 130.238 205.702 127.758 205.702 127.758C210.917 124.406 205.121 123.334 205.121 123.334Z" fill="url(#paint37_linear_11310_54212)"/>
<path d="M197.063 141.963C197.685 144.247 199.046 146.26 200.932 147.688C203.425 149.556 205.29 147.688 205.107 144.887C204.954 142.346 203.455 138.32 200.703 137.555C197.95 136.789 196.405 139.254 197.063 141.963Z" fill="#EDA098"/>
<g opacity="0.3" clip-path="url(#clip0_11310_54212)">
<path d="M67.075 108.484C63.0609 108.403 59.9747 105.055 59.4443 101.375C59.4291 101.28 59.3821 101.192 59.3104 101.125C59.2565 101.074 59.1908 101.037 59.1189 101.017C59.0471 100.997 58.9712 100.993 58.8978 101.007C58.8243 101.022 58.7555 101.053 58.6973 101.098C58.639 101.144 58.5929 101.202 58.563 101.269C56.9607 105.427 53.3136 108.529 49.3879 110.701C48.7005 111.082 49.015 112.083 49.645 112.068C52.4634 114.783 56.3897 117.297 57.3341 121.288C57.3572 121.422 57.4289 121.544 57.5377 121.632C57.6462 121.72 57.7832 121.769 57.9247 121.769C58.0663 121.769 58.2033 121.72 58.3118 121.632C58.4198 121.545 58.492 121.423 58.5154 121.288C59.6854 116.296 62.3993 111.827 67.4377 109.685C68.0463 109.388 67.6788 108.499 67.0755 108.484H67.075ZM57.8543 119.267C57.1268 117.863 56.2358 116.544 55.1988 115.336C54.1488 114.074 52.7634 112.249 51.1257 111.314C54.5795 109.303 57.6652 106.744 58.9986 103.099C60.0111 106.02 62.0216 108.468 65.05 109.373C61.2604 111.535 59.1245 115.235 57.8543 119.267ZM78.6614 118.499C75.5404 118.365 73.4988 115.939 72.9909 113.134C72.9539 112.935 72.6314 112.853 72.557 113.073C71.4309 116.277 69.1879 118.979 65.8295 120.131C65.4116 120.274 65.6441 120.837 66.0357 120.791C67.4282 121.507 68.6508 122.497 69.625 123.698C70.5986 124.898 71.3019 126.282 71.6897 127.762C71.7022 127.83 71.7388 127.89 71.7929 127.934C71.8471 127.978 71.9154 128.002 71.9859 128.002C72.0564 128.002 72.1247 127.978 72.1789 127.934C72.233 127.89 72.2696 127.83 72.2822 127.762C73.1918 124.021 75.0855 120.745 78.8355 119.107C79.158 118.959 78.9572 118.509 78.6609 118.498L78.6614 118.499Z" fill="#2499F3"/>
</g>
<defs>
<linearGradient id="paint0_linear_11310_54212" x1="344.5" y1="56" x2="344.5" y2="453.5" gradientUnits="userSpaceOnUse">
<stop stop-color="#D1ECFF"/>
<stop offset="1" stop-color="#D1ECFF" stop-opacity="0"/>
</linearGradient>
<linearGradient id="paint1_linear_11310_54212" x1="188.5" y1="-1.87019e-07" x2="187.5" y2="39" gradientUnits="userSpaceOnUse">
<stop stop-color="#BCDCF3"/>
<stop offset="1" stop-color="#BCDCF3" stop-opacity="0"/>
</linearGradient>
<linearGradient id="paint2_linear_11310_54212" x1="548.851" y1="9" x2="548.493" y2="28.1384" gradientUnits="userSpaceOnUse">
<stop stop-color="#BCDCF3"/>
<stop offset="1" stop-color="#BCDCF3" stop-opacity="0"/>
</linearGradient>
<linearGradient id="paint3_linear_11310_54212" x1="23.8513" y1="381" x2="23.493" y2="400.138" gradientUnits="userSpaceOnUse">
<stop stop-color="#BCDCF3"/>
<stop offset="1" stop-color="#BCDCF3" stop-opacity="0"/>
</linearGradient>
<linearGradient id="paint4_linear_11310_54212" x1="482.255" y1="506.44" x2="481.746" y2="103.64" gradientUnits="userSpaceOnUse">
<stop stop-color="#B7C0EB"/>
<stop offset="0.2785" stop-color="#E4E7FB"/>
<stop offset="1" stop-color="#E4E7FB"/>
</linearGradient>
<linearGradient id="paint5_linear_11310_54212" x1="364.642" y1="409.162" x2="502.747" y2="298.156" gradientUnits="userSpaceOnUse">
<stop offset="0.3044" stop-color="#EFF1FE"/>
<stop offset="0.5241" stop-color="#F5F7FE"/>
<stop offset="1" stop-color="white"/>
</linearGradient>
<linearGradient id="paint6_linear_11310_54212" x1="286.494" y1="111.353" x2="395.864" y2="528.765" gradientUnits="userSpaceOnUse">
<stop offset="0.1718" stop-color="#437FEC"/>
<stop offset="0.468" stop-color="#336CD5"/>
<stop offset="1" stop-color="#184EAE"/>
</linearGradient>
<linearGradient id="paint7_linear_11310_54212" x1="407.783" y1="118.255" x2="421.932" y2="118.255" gradientUnits="userSpaceOnUse">
<stop stop-color="#4CD9ED"/>
<stop offset="0.5438" stop-color="#47A6EC"/>
<stop offset="1" stop-color="#437FEC"/>
</linearGradient>
<linearGradient id="paint8_linear_11310_54212" x1="411.184" y1="114.403" x2="412.553" y2="123.056" gradientUnits="userSpaceOnUse">
<stop offset="0.1718" stop-color="#437FEC"/>
<stop offset="0.468" stop-color="#336CD5"/>
<stop offset="1" stop-color="#184EAE"/>
</linearGradient>
<linearGradient id="paint9_linear_11310_54212" x1="477.073" y1="125.962" x2="481.544" y2="125.962" gradientUnits="userSpaceOnUse">
<stop stop-color="#5FEFC0"/>
<stop offset="0.1335" stop-color="#5CECC6"/>
<stop offset="1" stop-color="#4CD9ED"/>
</linearGradient>
<linearGradient id="paint10_linear_11310_54212" x1="493.528" y1="123.382" x2="498.443" y2="123.382" gradientUnits="userSpaceOnUse">
<stop stop-color="#5FEFC0"/>
<stop offset="0.1335" stop-color="#5CECC6"/>
<stop offset="1" stop-color="#4CD9ED"/>
</linearGradient>
<linearGradient id="paint11_linear_11310_54212" x1="485.302" y1="124.668" x2="489.99" y2="124.668" gradientUnits="userSpaceOnUse">
<stop stop-color="#5FEFC0"/>
<stop offset="0.1335" stop-color="#5CECC6"/>
<stop offset="1" stop-color="#4CD9ED"/>
</linearGradient>
<linearGradient id="paint12_linear_11310_54212" x1="412.454" y1="251.351" x2="404.538" y2="197.781" gradientUnits="userSpaceOnUse">
<stop offset="0.3044" stop-color="#EFF1FE"/>
<stop offset="0.5241" stop-color="#F5F7FE"/>
<stop offset="1" stop-color="white"/>
</linearGradient>
<linearGradient id="paint13_linear_11310_54212" x1="379.814" y1="235.95" x2="427.973" y2="235.95" gradientUnits="userSpaceOnUse">
<stop stop-color="#4CD9ED"/>
<stop offset="0.5438" stop-color="#47A6EC"/>
<stop offset="1" stop-color="#437FEC"/>
</linearGradient>
<linearGradient id="paint14_linear_11310_54212" x1="398.693" y1="206.321" x2="415.628" y2="206.321" gradientUnits="userSpaceOnUse">
<stop stop-color="#4CD9ED"/>
<stop offset="0.5438" stop-color="#47A6EC"/>
<stop offset="1" stop-color="#437FEC"/>
</linearGradient>
<linearGradient id="paint15_linear_11310_54212" x1="445.945" y1="295.973" x2="457.841" y2="295.973" gradientUnits="userSpaceOnUse">
<stop stop-color="#4CD9ED"/>
<stop offset="0.5438" stop-color="#47A6EC"/>
<stop offset="1" stop-color="#437FEC"/>
</linearGradient>
<linearGradient id="paint16_linear_11310_54212" x1="450.584" y1="288.656" x2="454.778" y2="288.656" gradientUnits="userSpaceOnUse">
<stop stop-color="#4CD9ED"/>
<stop offset="0.5438" stop-color="#47A6EC"/>
<stop offset="1" stop-color="#437FEC"/>
</linearGradient>
<linearGradient id="paint17_linear_11310_54212" x1="395.936" y1="360.863" x2="395.934" y2="341.429" gradientUnits="userSpaceOnUse">
<stop stop-color="#B7C0EB"/>
<stop offset="0.2785" stop-color="#E4E7FB"/>
<stop offset="1" stop-color="#E4E7FB"/>
</linearGradient>
<linearGradient id="paint18_linear_11310_54212" x1="352.429" y1="441.084" x2="425.41" y2="441.084" gradientUnits="userSpaceOnUse">
<stop stop-color="#4CD9ED"/>
<stop offset="0.5438" stop-color="#47A6EC"/>
<stop offset="1" stop-color="#437FEC"/>
</linearGradient>
<linearGradient id="paint19_linear_11310_54212" x1="365.047" y1="398.647" x2="418.074" y2="398.647" gradientUnits="userSpaceOnUse">
<stop stop-color="#4CD9ED"/>
<stop offset="0.5438" stop-color="#47A6EC"/>
<stop offset="1" stop-color="#437FEC"/>
</linearGradient>
<linearGradient id="paint20_linear_11310_54212" x1="445.086" y1="320.834" x2="454.317" y2="320.834" gradientUnits="userSpaceOnUse">
<stop stop-color="#4CD9ED"/>
<stop offset="0.5438" stop-color="#47A6EC"/>
<stop offset="1" stop-color="#437FEC"/>
</linearGradient>
<linearGradient id="paint21_linear_11310_54212" x1="363.408" y1="321.907" x2="373.068" y2="321.907" gradientUnits="userSpaceOnUse">
<stop stop-color="#5FEFC0"/>
<stop offset="0.1335" stop-color="#5CECC6"/>
<stop offset="1" stop-color="#4CD9ED"/>
</linearGradient>
<linearGradient id="paint22_linear_11310_54212" x1="377.891" y1="321.906" x2="387.514" y2="321.906" gradientUnits="userSpaceOnUse">
<stop stop-color="#5FEFC0"/>
<stop offset="0.1335" stop-color="#5CECC6"/>
<stop offset="1" stop-color="#4CD9ED"/>
</linearGradient>
<linearGradient id="paint23_linear_11310_54212" x1="392.369" y1="321.907" x2="402.026" y2="321.907" gradientUnits="userSpaceOnUse">
<stop stop-color="#5FEFC0"/>
<stop offset="0.1335" stop-color="#5CECC6"/>
<stop offset="1" stop-color="#4CD9ED"/>
</linearGradient>
<linearGradient id="paint24_linear_11310_54212" x1="406.824" y1="321.907" x2="416.494" y2="321.907" gradientUnits="userSpaceOnUse">
<stop stop-color="#5FEFC0"/>
<stop offset="0.1335" stop-color="#5CECC6"/>
<stop offset="1" stop-color="#4CD9ED"/>
</linearGradient>
<linearGradient id="paint25_linear_11310_54212" x1="421.309" y1="321.906" x2="430.953" y2="321.906" gradientUnits="userSpaceOnUse">
<stop stop-color="#5FEFC0"/>
<stop offset="0.1335" stop-color="#5CECC6"/>
<stop offset="1" stop-color="#4CD9ED"/>
</linearGradient>
<linearGradient id="paint26_linear_11310_54212" x1="365.225" y1="292.853" x2="398.558" y2="292.853" gradientUnits="userSpaceOnUse">
<stop stop-color="#5FEFC0"/>
<stop offset="0.1335" stop-color="#5CECC6"/>
<stop offset="1" stop-color="#4CD9ED"/>
</linearGradient>
<linearGradient id="paint27_linear_11310_54212" x1="404.224" y1="292.853" x2="426.071" y2="292.853" gradientUnits="userSpaceOnUse">
<stop stop-color="#5FEFC0"/>
<stop offset="0.1335" stop-color="#5CECC6"/>
<stop offset="1" stop-color="#4CD9ED"/>
</linearGradient>
<linearGradient id="paint28_linear_11310_54212" x1="227.867" y1="202.182" x2="326.209" y2="202.182" gradientUnits="userSpaceOnUse">
<stop stop-color="#4CD9ED"/>
<stop offset="0.5438" stop-color="#47A6EC"/>
<stop offset="1" stop-color="#437FEC"/>
</linearGradient>
<linearGradient id="paint29_linear_11310_54212" x1="306.935" y1="202.194" x2="342.431" y2="202.194" gradientUnits="userSpaceOnUse">
<stop stop-color="#4CD9ED"/>
<stop offset="0.5438" stop-color="#47A6EC"/>
<stop offset="1" stop-color="#437FEC"/>
</linearGradient>
<linearGradient id="paint30_linear_11310_54212" x1="362.539" y1="117.032" x2="383.577" y2="117.032" gradientUnits="userSpaceOnUse">
<stop stop-color="#4CD9ED"/>
<stop offset="0.5438" stop-color="#47A6EC"/>
<stop offset="1" stop-color="#437FEC"/>
</linearGradient>
<linearGradient id="paint31_linear_11310_54212" x1="373.303" y1="122.034" x2="373.299" y2="112.012" gradientUnits="userSpaceOnUse">
<stop stop-color="#B7C0EB"/>
<stop offset="0.2785" stop-color="#E4E7FB"/>
<stop offset="1" stop-color="#E4E7FB"/>
</linearGradient>
<linearGradient id="paint32_linear_11310_54212" x1="179.808" y1="168.373" x2="180.117" y2="176.139" gradientUnits="userSpaceOnUse">
<stop offset="0.1718" stop-color="#437FEC"/>
<stop offset="0.468" stop-color="#336CD5"/>
<stop offset="1" stop-color="#184EAE"/>
</linearGradient>
<linearGradient id="paint33_linear_11310_54212" x1="152.322" y1="175.631" x2="162.149" y2="217.681" gradientUnits="userSpaceOnUse">
<stop offset="0.1718" stop-color="#437FEC"/>
<stop offset="0.468" stop-color="#336CD5"/>
<stop offset="1" stop-color="#184EAE"/>
</linearGradient>
<linearGradient id="paint34_linear_11310_54212" x1="128.199" y1="258.771" x2="232.493" y2="474.268" gradientUnits="userSpaceOnUse">
<stop offset="0.1718" stop-color="#437FEC"/>
<stop offset="0.468" stop-color="#336CD5"/>
<stop offset="1" stop-color="#184EAE"/>
</linearGradient>
<linearGradient id="paint35_linear_11310_54212" x1="187.507" y1="258.755" x2="320.812" y2="396.441" gradientUnits="userSpaceOnUse">
<stop offset="0.1718" stop-color="#437FEC"/>
<stop offset="0.468" stop-color="#336CD5"/>
<stop offset="1" stop-color="#184EAE"/>
</linearGradient>
<linearGradient id="paint36_linear_11310_54212" x1="214.427" y1="175.921" x2="225.068" y2="220.275" gradientUnits="userSpaceOnUse">
<stop offset="0.1718" stop-color="#437FEC"/>
<stop offset="0.468" stop-color="#336CD5"/>
<stop offset="1" stop-color="#184EAE"/>
</linearGradient>
<linearGradient id="paint37_linear_11310_54212" x1="168.772" y1="114.302" x2="177.937" y2="165.072" gradientUnits="userSpaceOnUse">
<stop offset="0.1718" stop-color="#437FEC"/>
<stop offset="0.468" stop-color="#336CD5"/>
<stop offset="1" stop-color="#184EAE"/>
</linearGradient>
<clipPath id="clip0_11310_54212">
<rect width="30" height="27" fill="white" transform="translate(49 101)"/>
</clipPath>
</defs>
</svg>
