<svg width="62" height="62" viewBox="0 0 62 62" fill="none" xmlns="http://www.w3.org/2000/svg">
<g clip-path="url(#clip0_11167_2464)">
<path d="M38.8711 60.7891H30.3945V37.6602H38.8711V60.7891Z" fill="#E2C4FF"/>
<path d="M51.041 26.6789C45.0097 26.6789 40.082 21.7721 40.082 15.741V14.5312H49.8906V4.84375H51.0621C57.0933 4.84375 61.9896 9.73012 61.9896 15.7614C61.9895 21.7925 57.0722 26.6789 51.041 26.6789Z" fill="#E2C4FF"/>
<path d="M47.4688 12.1094H35.2383V10.8774C35.2383 4.84629 40.1673 0 46.1985 0H47.4688V12.1094Z" fill="#E2C4FF"/>
<path d="M6.05469 15.7422H14.5312V60.7891H6.05469V15.7422Z" fill="#E2C4FF"/>
<path d="M60.7891 59.5782H51.1016V31.5475C51.1016 30.8787 50.5149 30.3946 49.8462 30.3946H43.7668C43.0981 30.3946 42.5039 30.8787 42.5039 31.5475V59.5782H26.7617V26.6839C26.7617 26.0152 26.1973 25.4297 25.5285 25.4297H19.4491C18.7803 25.4297 18.2852 26.0152 18.2852 26.6839V59.5782H2.42188V13.4308C2.42188 12.7621 1.87974 12.2198 1.21094 12.2198C0.542137 12.2198 0 12.7621 0 13.4308V60.7286C0 61.3972 0.542137 62 1.21094 62H60.7891C61.4577 62 62 61.4578 62 60.7891C62 60.1204 61.4577 59.5782 60.7891 59.5782ZM44.9258 32.8164H48.6797V59.5782H44.9258V32.8164ZM20.707 27.8516H24.3398V59.5782H20.707V27.8516Z" fill="#101044"/>
</g>
<defs>
<clipPath id="clip0_11167_2464">
<rect width="62" height="62" fill="white"/>
</clipPath>
</defs>
</svg>
