<svg width="62" height="62" viewBox="0 0 62 62" fill="none" xmlns="http://www.w3.org/2000/svg">
<g clip-path="url(#clip0_11167_2480)">
<path d="M21.2988 42.9087H40.7013C41.3701 42.9087 41.9123 42.3666 41.9123 41.6978C41.9123 41.029 41.3701 40.4868 40.7013 40.4868H21.2988C20.63 40.4868 20.0879 41.029 20.0879 41.6978C20.0879 42.3666 20.63 42.9087 21.2988 42.9087Z" fill="#101044"/>
<path d="M21.2988 47.938H40.7013C41.3701 47.938 41.9123 47.3959 41.9123 46.7271C41.9123 46.0583 41.3701 45.5161 40.7013 45.5161H21.2988C20.63 45.5161 20.0879 46.0583 20.0879 46.7271C20.0879 47.3959 20.63 47.938 21.2988 47.938Z" fill="#101044"/>
<path d="M60.7891 48.8203H59.4312V11.8779C59.4312 9.62044 57.5946 7.78381 55.3372 7.78381H39.2215C38.5527 7.78381 38.0106 8.32595 38.0106 8.99475C38.0106 9.66355 38.5527 10.2057 39.2215 10.2057H55.3373C56.2593 10.2057 57.0095 10.9557 57.0095 11.8779V48.8203H44.6656C43.9967 48.8203 43.4546 49.3624 43.4546 50.0312V51.3467H18.5454V50.0312C18.5454 49.3624 18.0033 48.8203 17.3344 48.8203H4.99064V11.8779C4.99064 10.9559 5.74069 10.2057 6.66282 10.2057H18.1615C18.8303 10.2057 19.3725 9.66355 19.3725 8.99475C19.3725 8.32595 18.8303 7.78381 18.1615 7.78381H6.6627C4.40527 7.78381 2.56864 9.62044 2.56864 11.8779V48.8203H1.21094C0.542137 48.8203 0 49.3624 0 50.0312V52.3034C0 56.0194 3.02311 59.0426 6.73911 59.0426H55.2609C58.9769 59.0426 62 56.0194 62 52.3034V50.0312C62 49.3624 61.4579 48.8203 60.7891 48.8203ZM59.5781 52.3034C59.5781 54.684 57.6415 56.6207 55.2609 56.6207H6.73911C4.35853 56.6207 2.42188 54.684 2.42188 52.3034V51.2422H16.1235V52.5576C16.1235 53.2264 16.6656 53.7686 17.3344 53.7686H44.6656C45.3344 53.7686 45.8765 53.2264 45.8765 52.5576V51.2422H59.5781V52.3034Z" fill="#101044"/>
<path d="M45.1606 2.95752H16.8402C14.4814 2.95752 12.5693 4.86971 12.5693 7.22837V29.8636C12.5693 32.2224 14.4815 34.1344 16.8402 34.1344H20.2601L21.2746 36.9841L25.3166 34.1344H45.1608C47.5195 34.1344 49.4316 32.2222 49.4316 29.8636V7.22837C49.4315 4.86971 47.5194 2.95752 45.1606 2.95752Z" fill="#FFBDBC"/>
<path d="M30.9998 18.1088C27.8401 18.1088 25.2695 15.5401 25.2695 12.3827C25.2695 9.22526 27.8401 6.65649 30.9998 6.65649C34.1595 6.65649 36.7301 9.22526 36.7301 12.3827C36.7301 15.5401 34.1595 18.1088 30.9998 18.1088ZM30.9998 9.07837C29.1755 9.07837 27.6914 10.5607 27.6914 12.3827C27.6914 14.2046 29.1755 15.6869 30.9998 15.6869C32.8241 15.6869 34.3082 14.2046 34.3082 12.3827C34.3082 10.5607 32.8241 9.07837 30.9998 9.07837Z" fill="#101044"/>
<path d="M38.5698 30.2204H23.4307C22.7619 30.2204 22.2197 29.6783 22.2197 29.0095V28.7595C22.2197 23.9199 26.1571 19.9825 30.9967 19.9825C35.8434 19.9825 39.7807 23.9199 39.7807 28.7595V29.0095C39.7807 29.6783 39.2386 30.2204 38.5698 30.2204ZM24.7141 27.7985H37.2863C36.8218 24.7486 34.1814 22.4043 31.0037 22.4043C27.8197 22.4043 25.1788 24.7487 24.7141 27.7985Z" fill="#101044"/>
</g>
<defs>
<clipPath id="clip0_11167_2480">
<rect width="62" height="62" fill="white"/>
</clipPath>
</defs>
</svg>
