<svg width="62" height="62" viewBox="0 0 62 62" fill="none" xmlns="http://www.w3.org/2000/svg">
<g clip-path="url(#clip0_11167_2453)">
<path fill-rule="evenodd" clip-rule="evenodd" d="M31 50.3789C41.6736 50.3789 50.379 41.6735 50.379 31C49.2842 5.2892 12.712 5.29672 11.6211 31.0001C11.6211 41.6735 20.3265 50.3789 31 50.3789Z" fill="#B0DDFF"/>
<path d="M60.7953 29.7886H57.6189C57.0016 16.0573 45.9425 4.99822 32.2112 4.38088V1.20455C32.1471 -0.402448 29.8523 -0.401237 29.7888 1.20455V4.38088C16.0575 4.99822 4.99846 16.0573 4.38124 29.7886H1.20479C-0.402204 29.8525 -0.400993 32.1475 1.20479 32.211H4.38112C4.99846 45.9422 16.0575 57.0012 29.7888 57.6186V60.795C29.8529 62.402 32.1477 62.4008 32.2112 60.795V57.6186C45.9425 57.0013 57.0016 45.9422 57.6189 32.211H60.7953C62.4023 32.1469 62.401 29.8521 60.7953 29.7886ZM31 55.2233C17.6431 55.2233 6.77636 44.3566 6.77636 30.9998C8.10697 -1.13618 53.8979 -1.12686 55.2237 30.9999C55.2237 44.3566 44.357 55.2233 31 55.2233Z" fill="#101044"/>
<path d="M36.1642 29.6773C36.5801 28.8768 36.8153 27.9679 36.8153 27.0052V24.7032C36.4951 16.9869 25.5027 16.9929 25.1853 24.7032V27.0052C25.1853 27.9679 25.4206 28.8768 25.8365 29.6773C23.2944 31.3951 21.7324 34.3001 21.7324 37.3636V39.4783C21.7324 40.1471 22.2747 40.6895 22.9436 40.6895H39.057C39.7258 40.6895 40.2681 40.1471 40.2681 39.4783V37.3636C40.2683 34.3001 38.7064 31.3951 36.1642 29.6773ZM27.6078 24.7032C27.7946 20.2013 34.2079 20.2047 34.393 24.7032V27.0052C34.2062 31.507 27.7929 31.5035 27.6078 27.0052V24.7032ZM37.8459 38.2671H24.1549V37.3636C24.1549 35.0248 25.3908 32.8094 27.3868 31.5579C29.3926 33.2268 32.6085 33.2264 34.6138 31.5579C36.6099 32.8094 37.8458 35.0248 37.8458 37.3634V38.2671H37.8459Z" fill="#101044"/>
</g>
<defs>
<clipPath id="clip0_11167_2453">
<rect width="62" height="62" fill="white"/>
</clipPath>
</defs>
</svg>
